<svg xmlns="http://www.w3.org/2000/svg" width="16" height="16" viewBox="0 0 16 16"><path fill="#bebebe" d="M1.5 6.75L4 6.75A0.75 0.75 0 0 0 4 5.25L1.5 5.25A0.75 0.75 0 0 0 1.5 6.75ZM4.53 6.53L7.78 3.28A0.75 0.75 0 0 0 6.72 2.22L3.47 5.47A0.75 0.75 0 0 0 4.53 6.53ZM6.5 2.75L6.5 13.25A0.75 0.75 0 0 0 8 13.25L8 2.75A0.75 0.75 0 0 0 6.5 2.75ZM7.78 12.72L4.53 9.47A0.75 0.75 0 0 0 3.47 10.53L6.72 13.78A0.75 0.75 0 0 0 7.78 12.72ZM4 9.25L1.5 9.25A0.75 0.75 0 0 0 1.5 10.75L4 10.75A0.75 0.75 0 0 0 4 9.25ZM2.25 10L2.25 6A0.75 0.75 0 0 0 0.75 6L0.75 10A0.75 0.75 0 0 0 2.25 10Z"/><path fill="#bebebe" d="M10.17 5.83A3.25 3.25 0 0 1 10.17 10.17A0.75 0.75 0 0 1 9.05 9.17A1.75 1.75 0 0 0 9.05 6.83A0.75 0.75 0 0 1 10.17 5.83Z"/><path fill="#bebebe" d="M11.84 4.32A5.5 5.5 0 0 1 11.84 11.68A0.75 0.75 0 0 1 10.72 10.68A4 4 0 0 0 10.72 5.32A0.75 0.75 0 0 1 11.84 4.32Z"/><path fill="#bebebe" opacity=".35" d="M13.86 3.23A7.75 7.75 0 0 1 13.86 12.77A0.75 0.75 0 0 1 12.68 11.85A6.25 6.25 0 0 0 12.68 4.15A0.75 0.75 0 0 1 13.86 3.23Z"/></svg>
