<svg xmlns="http://www.w3.org/2000/svg" width="16" height="16" viewBox="0 0 16 16"><path fill="#bebebe" fill-rule="evenodd" d="M3.25 3.75H11.5A2.5 2.5 0 0 1 14 6.25V9.75A2.5 2.5 0 0 1 11.5 12.25H3.25A2.5 2.5 0 0 1 0.75 9.75V6.25A2.5 2.5 0 0 1 3.25 3.75ZM3.25 5.25H11.5A1 1 0 0 1 12.5 6.25V9.75A1 1 0 0 1 11.5 10.75H3.25A1 1 0 0 1 2.25 9.75V6.25A1 1 0 0 1 3.25 5.25Z"/><path fill="#bebebe" d="M14.5 6.4H14.65A0.6 0.6 0 0 1 15.25 7V9A0.6 0.6 0 0 1 14.65 9.6H14.5A0.6 0.6 0 0 1 13.9 9V7A0.6 0.6 0 0 1 14.5 6.4Z"/><path fill="#bebebe" d="M4 6.25H9.93A0.75 0.75 0 0 1 10.68 7V9A0.75 0.75 0 0 1 9.93 9.75H4A0.75 0.75 0 0 1 3.25 9V7A0.75 0.75 0 0 1 4 6.25Z"/></svg>
