<svg xmlns="http://www.w3.org/2000/svg" width="16" height="16" viewBox="0 0 16 16"><path fill="#bebebe" fill-rule="evenodd" d="M3.25 4H12.75A2.25 2.25 0 0 1 15 6.25V9.75A2.25 2.25 0 0 1 12.75 12H3.25A2.25 2.25 0 0 1 1 9.75V6.25A2.25 2.25 0 0 1 3.25 4ZM3.25 5.5H12.75A0.75 0.75 0 0 1 13.5 6.25V9.75A0.75 0.75 0 0 1 12.75 10.5H3.25A0.75 0.75 0 0 1 2.5 9.75V6.25A0.75 0.75 0 0 1 3.25 5.5Z"/><path fill="#bebebe" d="M12.4 8A0.9 0.9 0 1 1 10.6 8A0.9 0.9 0 1 1 12.4 8Z"/><path fill="#bebebe" d="M4.25 8.75L8 8.75A0.75 0.75 0 0 0 8 7.25L4.25 7.25A0.75 0.75 0 0 0 4.25 8.75Z"/></svg>
