<svg xmlns="http://www.w3.org/2000/svg" width="16" height="16" viewBox="0 0 16 16"><path fill="#bebebe" fill-rule="evenodd" d="M11.75 8A3.75 3.75 0 1 1 4.25 8A3.75 3.75 0 1 1 11.75 8ZM10.25 8A2.25 2.25 0 1 1 5.75 8A2.25 2.25 0 1 1 10.25 8Z"/><path fill="#bebebe" d="M13 8.75L14.5 8.75A0.75 0.75 0 0 0 14.5 7.25L13 7.25A0.75 0.75 0 0 0 13 8.75Z"/><path fill="#bebebe" d="M11.01 12.07L12.07 13.13A0.75 0.75 0 0 0 13.13 12.07L12.07 11.01A0.75 0.75 0 0 0 11.01 12.07Z"/><path fill="#bebebe" d="M7.25 13L7.25 14.5A0.75 0.75 0 0 0 8.75 14.5L8.75 13A0.75 0.75 0 0 0 7.25 13Z"/><path fill="#bebebe" d="M3.93 11.01L2.87 12.07A0.75 0.75 0 0 0 3.93 13.13L4.99 12.07A0.75 0.75 0 0 0 3.93 11.01Z"/><path fill="#bebebe" d="M3 7.25L1.5 7.25A0.75 0.75 0 0 0 1.5 8.75L3 8.75A0.75 0.75 0 0 0 3 7.25Z"/><path fill="#bebebe" d="M4.99 3.93L3.93 2.87A0.75 0.75 0 0 0 2.87 3.93L3.93 4.99A0.75 0.75 0 0 0 4.99 3.93Z"/><path fill="#bebebe" d="M8.75 3L8.75 1.5A0.75 0.75 0 0 0 7.25 1.5L7.25 3A0.75 0.75 0 0 0 8.75 3Z"/><path fill="#bebebe" d="M12.07 4.99L13.13 3.93A0.75 0.75 0 0 0 12.07 2.87L11.01 3.93A0.75 0.75 0 0 0 12.07 4.99Z"/></svg>
